<?xml version="1.0" encoding="utf-8"?>
<!-- Generator: Adobe Illustrator 19.0.0, SVG Export Plug-In . SVG Version: 6.00 Build 0)  -->
<svg version="1.1" id="Layer_1" xmlns="http://www.w3.org/2000/svg" xmlns:xlink="http://www.w3.org/1999/xlink" x="0px" y="0px"
	 viewBox="0 0 619.8 154.4" style="enable-background:new 0 0 619.8 154.4;" xml:space="preserve">
<style type="text/css">
	.st0{fill:none;stroke:#FFFFFF;stroke-width:4;stroke-miterlimit:10;}
	.st1{fill:#FFFFFF;}
</style>
<circle id="XMLID_6_" class="st0" cx="77.2" cy="77.2" r="75.2"/>
<circle id="XMLID_7_" class="st0" cx="77.2" cy="77.2" r="53"/>
<g id="XMLID_2_">
	<path id="XMLID_3_" class="st1" d="M280.5,49.1v10.8c-5.3-4.4-10.7-6.6-16.3-6.6c-6.2,0-11.4,2.2-15.7,6.7
		c-4.3,4.4-6.4,9.8-6.4,16.2c0,6.3,2.1,11.7,6.4,16c4.3,4.3,9.5,6.5,15.7,6.5c3.2,0,5.9-0.5,8.2-1.6c1.2-0.5,2.5-1.2,3.9-2.1
		c1.3-0.9,2.8-2,4.2-3.2v11c-5.2,2.9-10.7,4.4-16.4,4.4c-8.6,0-16-3-22.1-9c-6.1-6.1-9.1-13.4-9.1-22c0-7.7,2.5-14.5,7.6-20.5
		c6.2-7.4,14.3-11.1,24.3-11.1C270.2,44.7,275.4,46.2,280.5,49.1z"/>
	<path id="XMLID_5_" class="st1" d="M288.6,75.8c0-8.5,3.1-15.8,9.3-21.9c6.2-6.1,13.6-9.1,22.3-9.1c8.6,0,16,3.1,22.1,9.2
		c6.2,6.1,9.3,13.5,9.3,22.1c0,8.7-3.1,16-9.3,22.1c-6.2,6.1-13.7,9.1-22.5,9.1c-7.8,0-14.8-2.7-21-8.1
		C292,93.2,288.6,85.4,288.6,75.8z M297.8,75.9c0,6.7,2.2,12.1,6.7,16.4c4.5,4.3,9.6,6.4,15.4,6.4c6.3,0,11.7-2.2,16-6.6
		c4.3-4.4,6.5-9.8,6.5-16.2c0-6.4-2.1-11.8-6.4-16.2c-4.3-4.4-9.6-6.6-15.9-6.6c-6.3,0-11.6,2.2-15.9,6.6
		C299.9,64.2,297.8,69.5,297.8,75.9z"/>
	<path id="XMLID_10_" class="st1" d="M372.2,45.9v51.8h17.7v8.6h-26.8V45.9H372.2z"/>
	<path id="XMLID_12_" class="st1" d="M407.6,45.9v51.8h17.7v8.6h-26.8V45.9H407.6z"/>
	<path id="XMLID_14_" class="st1" d="M472.8,91.5H447l-6.7,14.6h-9.8l29.8-64.1l28.8,64.1h-10L472.8,91.5z M469.1,83l-8.9-20.5
		L450.8,83H469.1z"/>
	<path id="XMLID_17_" class="st1" d="M505.7,81.7v24.5h-9.1V45.9h10.3c5.1,0,8.9,0.4,11.4,1.1c2.6,0.7,4.9,2,6.9,4
		c3.5,3.4,5.2,7.7,5.2,12.8c0,5.5-1.8,9.9-5.5,13.1c-3.7,3.2-8.7,4.8-15,4.8H505.7z M505.7,73.3h3.4c8.4,0,12.5-3.2,12.5-9.6
		c0-6.2-4.3-9.3-12.9-9.3h-3V73.3z"/>
	<path id="XMLID_20_" class="st1" d="M573.9,54.9l-7.4,4.4c-1.4-2.4-2.7-4-3.9-4.7c-1.3-0.8-3-1.2-5-1.2c-2.5,0-4.6,0.7-6.3,2.1
		c-1.7,1.4-2.5,3.2-2.5,5.3c0,2.9,2.2,5.3,6.6,7.1l6,2.5c4.9,2,8.5,4.4,10.7,7.2s3.4,6.3,3.4,10.5c0,5.5-1.8,10.1-5.5,13.8
		c-3.7,3.6-8.3,5.5-13.9,5.5c-5.2,0-9.6-1.5-13-4.6c-3.4-3.1-5.5-7.5-6.3-13.1l9.2-2c0.4,3.5,1.1,6,2.2,7.3c1.9,2.6,4.6,3.9,8.2,3.9
		c2.8,0,5.2-1,7.1-2.9c1.9-1.9,2.8-4.3,2.8-7.2c0-1.2-0.2-2.2-0.5-3.2c-0.3-1-0.8-1.9-1.5-2.7c-0.7-0.8-1.6-1.6-2.7-2.3
		c-1.1-0.7-2.4-1.4-3.9-2.1l-5.8-2.4c-8.3-3.5-12.4-8.6-12.4-15.3c0-4.5,1.7-8.3,5.2-11.4c3.5-3.1,7.8-4.6,12.9-4.6
		C564.6,44.7,570,48.1,573.9,54.9z"/>
	<path id="XMLID_22_" class="st1" d="M619.8,54.4h-24.2v14.5h23.5v8.6h-23.5v20.2h24.2v8.6h-33.3V45.9h33.3V54.4z"/>
</g>
</svg>
