<?xml version="1.0" encoding="utf-8"?>
<!-- Generator: Adobe Illustrator 19.0.0, SVG Export Plug-In . SVG Version: 6.00 Build 0)  -->
<svg version="1.1" id="Layer_1" xmlns="http://www.w3.org/2000/svg" xmlns:xlink="http://www.w3.org/1999/xlink" x="0px" y="0px"
	 viewBox="0 0 200.9 17.1" style="enable-background:new 0 0 200.9 17.1;" xml:space="preserve">
<g id="XMLID_5_">
	<path id="XMLID_6_" d="M15.6,8.9c0,2.2-0.8,4-2.3,5.6s-3.4,2.3-5.5,2.3s-4-0.8-5.5-2.3C0.8,13,0,11.1,0,8.9c0-1.2,0.2-2.3,0.7-3.3
		c0.5-1.1,1.2-2,2.1-2.7c1.5-1.2,3.1-1.8,4.9-1.8c1.2,0,2.3,0.2,3.3,0.7c1.4,0.6,2.5,1.6,3.3,2.9C15.2,6,15.6,7.4,15.6,8.9z
		 M7.8,2.2c-1.8,0-3.3,0.7-4.6,2C1.9,5.5,1.3,7.1,1.3,8.9c0,1.9,0.6,3.4,1.9,4.8c1.3,1.3,2.8,2,4.6,2c1.8,0,3.3-0.7,4.6-2
		c1.3-1.3,1.9-2.9,1.9-4.8c0-1-0.3-2-0.8-3.1c-0.5-1-1.2-1.8-2-2.4C10.5,2.7,9.2,2.2,7.8,2.2z M10.8,5v2l-0.2-0.2
		C9.8,6.1,9,5.8,8.2,5.8c-0.9,0-1.6,0.3-2.2,0.9C5.3,7.3,5,8.1,5,9s0.3,1.6,0.9,2.2c0.6,0.6,1.4,0.9,2.2,0.9c0.8,0,1.6-0.3,2.4-1
		l0.2-0.2v2c-0.9,0.5-1.8,0.7-2.7,0.7c-1.3,0-2.5-0.5-3.4-1.4s-1.4-2-1.4-3.3c0-1.3,0.5-2.4,1.4-3.3s2.1-1.4,3.5-1.4
		C9.1,4.3,9.9,4.5,10.8,5L10.8,5z"/>
	<path id="XMLID_10_" d="M21.4,14.4H27v2.1H16.9l5.2-6.3c0.5-0.6,0.9-1.2,1.3-1.6s0.6-0.8,0.8-1.2c0.4-0.6,0.6-1.2,0.6-1.7
		c0-0.7-0.2-1.3-0.7-1.8s-1.1-0.7-1.8-0.7c-1.5,0-2.4,0.9-2.6,2.7h-2.3c0.4-3.2,2-4.8,4.8-4.8c1.4,0,2.5,0.4,3.5,1.3
		c0.9,0.9,1.4,2,1.4,3.2c0,0.8-0.2,1.6-0.7,2.4c-0.2,0.4-0.5,0.9-1,1.5s-1,1.2-1.6,2L21.4,14.4z"/>
	<path id="XMLID_12_" d="M29.6,8.9c0-2.4,0.6-4.3,1.7-5.8c1-1.3,2.2-1.9,3.6-1.9s2.6,0.6,3.6,1.9c1.1,1.4,1.7,3.4,1.7,5.8
		c0,2.5-0.6,4.4-1.7,5.8c-1,1.3-2.2,1.9-3.6,1.9s-2.6-0.6-3.7-1.9C30.1,13.4,29.6,11.4,29.6,8.9z M31.8,8.9c0,1.7,0.3,3.1,0.9,4.2
		c0.6,1.1,1.3,1.6,2.2,1.6c0.9,0,1.6-0.5,2.2-1.6C37.7,12,38,10.6,38,8.9s-0.3-3-0.9-4.1c-0.6-1.1-1.3-1.6-2.2-1.6
		c-0.9,0-1.6,0.5-2.2,1.6C32.1,5.9,31.8,7.3,31.8,8.9z"/>
	<path id="XMLID_15_" d="M45,3.5h-2.6l1.2-2.1h3.6v15.1H45V3.5z"/>
	<path id="XMLID_17_" d="M60.8,3.5h-4.6L55.4,6c0.1,0,0.2,0,0.3,0s0.2,0,0.3,0c1.5,0,2.7,0.5,3.6,1.5c0.9,1,1.4,2.2,1.4,3.8
		c0,1.6-0.5,2.9-1.6,3.9s-2.4,1.5-4,1.5c-2,0-3.6-0.9-4.7-2.8l1.7-1.5c0.5,0.8,1,1.4,1.4,1.7c0.5,0.3,1.1,0.5,1.8,0.5
		c0.9,0,1.7-0.3,2.3-1c0.6-0.7,0.9-1.5,0.9-2.4c0-1-0.3-1.8-0.9-2.4C57.3,8.3,56.5,8,55.6,8c-1,0-1.9,0.4-2.6,1.3h-0.8l2.4-7.9h6.2
		V3.5z"/>
	<path id="XMLID_19_" d="M69.9,8.9c0-2.1,0.8-3.9,2.3-5.5c1.5-1.5,3.4-2.3,5.6-2.3c2.1,0,4,0.8,5.5,2.3C84.9,5,85.6,6.8,85.6,9
		c0,2.2-0.8,4-2.3,5.5c-1.6,1.5-3.4,2.3-5.6,2.3c-1.9,0-3.7-0.7-5.2-2C70.7,13.3,69.9,11.3,69.9,8.9z M72.2,8.9c0,1.7,0.6,3,1.7,4.1
		c1.1,1.1,2.4,1.6,3.9,1.6c1.6,0,2.9-0.5,4-1.6c1.1-1.1,1.6-2.5,1.6-4c0-1.6-0.5-3-1.6-4c-1.1-1.1-2.4-1.6-4-1.6
		c-1.6,0-2.9,0.5-4,1.6C72.7,6,72.2,7.3,72.2,8.9z"/>
	<path id="XMLID_22_" d="M90.3,0v16.5h-2.2V0H90.3z"/>
	<path id="XMLID_24_" d="M92.7,3c0-0.4,0.1-0.7,0.4-1s0.6-0.4,1-0.4c0.4,0,0.7,0.1,1,0.4c0.3,0.3,0.4,0.6,0.4,1s-0.1,0.7-0.4,1
		c-0.3,0.3-0.6,0.4-1,0.4s-0.7-0.1-1-0.4S92.7,3.4,92.7,3z M95.3,7v9.5h-2.2V7H95.3z"/>
	<path id="XMLID_27_" d="M99.2,7l2.5,5.3l2.5-5.3h2.5l-4.9,10.2L96.8,7H99.2z"/>
	<path id="XMLID_29_" d="M116.4,12.3h-6.8c0.1,0.8,0.3,1.4,0.8,1.9c0.4,0.5,1,0.7,1.7,0.7c0.5,0,1-0.1,1.4-0.4
		c0.4-0.3,0.8-0.7,1.2-1.4l1.9,1c-0.3,0.5-0.6,0.9-0.9,1.3s-0.7,0.6-1,0.9s-0.8,0.4-1.2,0.5s-0.9,0.2-1.4,0.2
		c-1.4,0-2.6-0.5-3.4-1.4c-0.9-0.9-1.3-2.1-1.3-3.7c0-1.5,0.4-2.7,1.2-3.7c0.8-0.9,2-1.4,3.3-1.4c1.4,0,2.5,0.4,3.3,1.3
		c0.8,0.9,1.2,2.1,1.2,3.7L116.4,12.3z M114.2,10.5c-0.3-1.2-1-1.8-2.2-1.8c-0.3,0-0.5,0-0.8,0.1s-0.4,0.2-0.6,0.4s-0.4,0.3-0.5,0.6
		s-0.2,0.5-0.3,0.7H114.2z"/>
	<path id="XMLID_32_" d="M118.8,7h2.2v0.8c0.4-0.4,0.8-0.7,1.1-0.9c0.3-0.2,0.7-0.2,1.1-0.2c0.6,0,1.2,0.2,1.8,0.6l-1,2
		c-0.4-0.3-0.8-0.4-1.2-0.4c-1.2,0-1.8,0.9-1.8,2.7v4.9h-2.2V7z"/>
	<path id="XMLID_34_" d="M135.2,1.4v12.9h4.4v2.1h-6.7V1.4H135.2z"/>
	<path id="XMLID_36_" d="M148.3,7h2.2v9.5h-2.2v-1c-0.9,0.8-1.9,1.3-2.9,1.3c-1.3,0-2.4-0.5-3.3-1.4c-0.9-1-1.3-2.2-1.3-3.6
		c0-1.4,0.4-2.6,1.3-3.6s1.9-1.4,3.2-1.4c1.1,0,2.1,0.5,3,1.4V7z M143.1,11.7c0,0.9,0.2,1.7,0.7,2.2c0.5,0.6,1.1,0.9,1.9,0.9
		c0.8,0,1.5-0.3,2-0.8c0.5-0.6,0.8-1.3,0.8-2.2s-0.3-1.6-0.8-2.2c-0.5-0.6-1.2-0.8-2-0.8c-0.8,0-1.4,0.3-1.9,0.9
		C143.4,10.1,143.1,10.9,143.1,11.7z"/>
	<path id="XMLID_39_" d="M153.3,7h2.2v0.8c0.4-0.4,0.8-0.7,1.1-0.9c0.3-0.2,0.7-0.2,1.1-0.2c0.6,0,1.2,0.2,1.8,0.6l-1,2
		c-0.4-0.3-0.8-0.4-1.2-0.4c-1.2,0-1.8,0.9-1.8,2.7v4.9h-2.2V7z"/>
	<path id="XMLID_41_" d="M167.7,0h2.2v16.5h-2.2v-1c-0.9,0.8-1.8,1.3-2.9,1.3c-1.3,0-2.4-0.5-3.2-1.4c-0.9-1-1.3-2.2-1.3-3.6
		c0-1.4,0.4-2.6,1.3-3.6c0.8-1,1.9-1.4,3.2-1.4c1.1,0,2.1,0.5,3,1.4V0z M162.5,11.7c0,0.9,0.2,1.7,0.7,2.2c0.5,0.6,1.1,0.9,1.9,0.9
		c0.8,0,1.5-0.3,2-0.8c0.5-0.6,0.8-1.3,0.8-2.2s-0.3-1.6-0.8-2.2c-0.5-0.6-1.2-0.8-2-0.8c-0.8,0-1.4,0.3-1.9,0.9
		C162.7,10.1,162.5,10.9,162.5,11.7z"/>
	<path id="XMLID_44_" d="M172.7,7h2.2v0.9c0.8-0.8,1.6-1.1,2.6-1.1c1.1,0,2,0.3,2.6,1c0.5,0.6,0.8,1.6,0.8,2.9v5.8h-2.2v-5.3
		c0-0.9-0.1-1.6-0.4-1.9c-0.3-0.4-0.7-0.5-1.4-0.5c-0.7,0-1.2,0.2-1.6,0.7c-0.3,0.5-0.4,1.3-0.4,2.5v4.6h-2.2V7z"/>
	<path id="XMLID_46_" d="M192.3,12.3h-6.8c0.1,0.8,0.3,1.4,0.8,1.9c0.4,0.5,1,0.7,1.7,0.7c0.5,0,1-0.1,1.4-0.4
		c0.4-0.3,0.8-0.7,1.2-1.4l1.9,1c-0.3,0.5-0.6,0.9-0.9,1.3s-0.7,0.6-1,0.9s-0.8,0.4-1.2,0.5s-0.9,0.2-1.4,0.2
		c-1.4,0-2.6-0.5-3.4-1.4c-0.9-0.9-1.3-2.1-1.3-3.7c0-1.5,0.4-2.7,1.2-3.7c0.8-0.9,2-1.4,3.3-1.4c1.4,0,2.5,0.4,3.3,1.3
		c0.8,0.9,1.2,2.1,1.2,3.7L192.3,12.3z M190,10.5c-0.3-1.2-1-1.8-2.2-1.8c-0.3,0-0.5,0-0.8,0.1s-0.4,0.2-0.6,0.4s-0.4,0.3-0.5,0.6
		s-0.2,0.5-0.3,0.7H190z"/>
	<path id="XMLID_49_" d="M194.7,7h2.2v0.8c0.4-0.4,0.8-0.7,1.1-0.9c0.3-0.2,0.7-0.2,1.1-0.2c0.6,0,1.2,0.2,1.8,0.6l-1,2
		c-0.4-0.3-0.8-0.4-1.2-0.4c-1.2,0-1.8,0.9-1.8,2.7v4.9h-2.2V7z"/>
</g>
</svg>
